<svg width="56" height="34" viewBox="0 0 56 34" fill="none" xmlns="http://www.w3.org/2000/svg">
<path d="M28 31.8175C17.0497 31.8175 7.32301 25.8032 1.42893 16.5159C7.32301 7.22863 17.0497 1.21429 28 1.21429C38.9502 1.21429 48.6769 7.22864 54.571 16.5159C48.6769 25.8032 38.9502 31.8175 28 31.8175Z" fill="white" stroke="black" stroke-width="2.42857"/>
<circle cx="13.0172" cy="13.0172" r="13.0172" transform="matrix(-1 0 0 1 41.0344 4)" fill="black"/>
<circle cx="5.5" cy="5.5" r="5.5" transform="matrix(-1 0 0 1 34 20)" fill="white"/>
<path d="M28 31.8175C17.0497 31.8175 7.32301 25.8032 1.42893 16.5159C7.32301 7.22863 17.0497 1.21429 28 1.21429C38.9502 1.21429 48.6769 7.22864 54.571 16.5159C48.6769 25.8032 38.9502 31.8175 28 31.8175Z" stroke="black" stroke-width="2.42857"/>
</svg>
