<svg width="57" height="57" viewBox="0 0 57 57" fill="none" xmlns="http://www.w3.org/2000/svg">
<circle cx="28.5" cy="28.5" r="28.5" fill="#A7FE50"/>
<path d="M29 32C30.0609 32 31.0783 31.5786 31.8284 30.8284C32.5786 30.0783 33 29.0609 33 28V22C33 20.9391 32.5786 19.9217 31.8284 19.1716C31.0783 18.4214 30.0609 18 29 18C27.9391 18 26.9217 18.4214 26.1716 19.1716C25.4214 19.9217 25 20.9391 25 22V28C25 29.0609 25.4214 30.0783 26.1716 30.8284C26.9217 31.5786 27.9391 32 29 32ZM27 22C27 21.4696 27.2107 20.9609 27.5858 20.5858C27.9609 20.2107 28.4696 20 29 20C29.5304 20 30.0391 20.2107 30.4142 20.5858C30.7893 20.9609 31 21.4696 31 22V28C31 28.5304 30.7893 29.0391 30.4142 29.4142C30.0391 29.7893 29.5304 30 29 30C28.4696 30 27.9609 29.7893 27.5858 29.4142C27.2107 29.0391 27 28.5304 27 28V22ZM37 28C37 27.7348 36.8946 27.4804 36.7071 27.2929C36.5196 27.1054 36.2652 27 36 27C35.7348 27 35.4804 27.1054 35.2929 27.2929C35.1054 27.4804 35 27.7348 35 28C35 29.5913 34.3679 31.1174 33.2426 32.2426C32.1174 33.3679 30.5913 34 29 34C27.4087 34 25.8826 33.3679 24.7574 32.2426C23.6321 31.1174 23 29.5913 23 28C23 27.7348 22.8946 27.4804 22.7071 27.2929C22.5196 27.1054 22.2652 27 22 27C21.7348 27 21.4804 27.1054 21.2929 27.2929C21.1054 27.4804 21 27.7348 21 28C21.0018 29.9473 21.7137 31.8271 23.0024 33.287C24.2911 34.7469 26.068 35.6866 28 35.93V38H26C25.7348 38 25.4804 38.1054 25.2929 38.2929C25.1054 38.4804 25 38.7348 25 39C25 39.2652 25.1054 39.5196 25.2929 39.7071C25.4804 39.8946 25.7348 40 26 40H32C32.2652 40 32.5196 39.8946 32.7071 39.7071C32.8946 39.5196 33 39.2652 33 39C33 38.7348 32.8946 38.4804 32.7071 38.2929C32.5196 38.1054 32.2652 38 32 38H30V35.93C31.932 35.6866 33.7089 34.7469 34.9976 33.287C36.2863 31.8271 36.9982 29.9473 37 28Z" fill="black"/>
</svg>
