<svg width="57" height="57" viewBox="0 0 57 57" fill="none" xmlns="http://www.w3.org/2000/svg">
<circle cx="28.5" cy="28.5" r="28.5" fill="#A7FE50"/>
<path d="M18 37V31H24" stroke="black" stroke-width="2" stroke-linecap="round" stroke-linejoin="round"/>
<path d="M40 21V27H34" stroke="black" stroke-width="2" stroke-linecap="round" stroke-linejoin="round"/>
<path d="M20.51 26C21.0172 24.5668 21.8791 23.2854 23.0155 22.2754C24.1518 21.2654 25.5255 20.5598 27.0083 20.2243C28.4911 19.8888 30.0348 19.9344 31.4952 20.3568C32.9556 20.7792 34.2853 21.5647 35.36 22.64L40 27M18 31L22.64 35.36C23.7147 36.4353 25.0444 37.2208 26.5048 37.6432C27.9652 38.0657 29.5089 38.1113 30.9917 37.7758C32.4745 37.4402 33.8482 36.7346 34.9845 35.7246C36.1209 34.7146 36.9828 33.4332 37.49 32" stroke="black" stroke-width="2" stroke-linecap="round" stroke-linejoin="round"/>
</svg>
