<svg width="57" height="57" viewBox="0 0 57 57" fill="none" xmlns="http://www.w3.org/2000/svg">
<circle cx="28.5" cy="28.5" r="28.5" fill="#A7FE50"/>
<path d="M35.54 26L25.88 20.46C25.3573 20.1582 24.764 20.0001 24.1604 20.0017C23.5568 20.0034 22.9643 20.1648 22.4433 20.4695C21.9222 20.7742 21.4911 21.2114 21.1937 21.7366C20.8963 22.2619 20.7432 22.8565 20.75 23.46V34.58C20.75 35.4871 21.1103 36.357 21.7517 36.9983C22.393 37.6397 23.2629 38 24.17 38C24.7704 37.999 25.3601 37.8404 25.88 37.54L35.54 32C36.059 31.6996 36.49 31.268 36.7896 30.7485C37.0891 30.2289 37.2468 29.6397 37.2468 29.04C37.2468 28.4403 37.0891 27.8511 36.7896 27.3316C36.49 26.8121 36.059 26.3804 35.54 26.08V26ZM34.54 30.19L24.88 35.81C24.6635 35.9327 24.4188 35.9972 24.17 35.9972C23.9211 35.9972 23.6765 35.9327 23.46 35.81C23.2441 35.6854 23.0648 35.5061 22.9402 35.2902C22.8155 35.0743 22.7499 34.8293 22.75 34.58V23.42C22.7499 23.1707 22.8155 22.9258 22.9402 22.7099C23.0648 22.494 23.2441 22.3147 23.46 22.19C23.6774 22.0692 23.9213 22.0039 24.17 22C24.4185 22.0051 24.6621 22.0703 24.88 22.19L34.54 27.77C34.756 27.8946 34.9353 28.0739 35.06 28.2898C35.1847 28.5057 35.2504 28.7507 35.2504 29C35.2504 29.2494 35.1847 29.4943 35.06 29.7102C34.9353 29.9262 34.756 30.1054 34.54 30.23V30.19Z" fill="black"/>
</svg>
