<svg width="31" height="31" viewBox="0 0 31 31" fill="none" xmlns="http://www.w3.org/2000/svg">
<circle cx="15.5" cy="15.5" r="15.5" fill="#A7FE50"/>
<path d="M18 11C17.6022 11 17.2206 11.158 16.9393 11.4393C16.658 11.7206 16.5 12.1022 16.5 12.5V19.5C16.5 19.8978 16.658 20.2794 16.9393 20.5607C17.2206 20.842 17.6022 21 18 21C18.3978 21 18.7794 20.842 19.0607 20.5607C19.342 20.2794 19.5 19.8978 19.5 19.5V12.5C19.5 12.1022 19.342 11.7206 19.0607 11.4393C18.7794 11.158 18.3978 11 18 11ZM18.5 19.5C18.5 19.6326 18.4473 19.7598 18.3536 19.8536C18.2598 19.9473 18.1326 20 18 20C17.8674 20 17.7402 19.9473 17.6464 19.8536C17.5527 19.7598 17.5 19.6326 17.5 19.5V12.5C17.5 12.3674 17.5527 12.2402 17.6464 12.1464C17.7402 12.0527 17.8674 12 18 12C18.1326 12 18.2598 12.0527 18.3536 12.1464C18.4473 12.2402 18.5 12.3674 18.5 12.5V19.5ZM14 11C13.6022 11 13.2206 11.158 12.9393 11.4393C12.658 11.7206 12.5 12.1022 12.5 12.5V19.5C12.5 19.8978 12.658 20.2794 12.9393 20.5607C13.2206 20.842 13.6022 21 14 21C14.3978 21 14.7794 20.842 15.0607 20.5607C15.342 20.2794 15.5 19.8978 15.5 19.5V12.5C15.5 12.1022 15.342 11.7206 15.0607 11.4393C14.7794 11.158 14.3978 11 14 11ZM14.5 19.5C14.5 19.6326 14.4473 19.7598 14.3536 19.8536C14.2598 19.9473 14.1326 20 14 20C13.8674 20 13.7402 19.9473 13.6464 19.8536C13.5527 19.7598 13.5 19.6326 13.5 19.5V12.5C13.5 12.3674 13.5527 12.2402 13.6464 12.1464C13.7402 12.0527 13.8674 12 14 12C14.1326 12 14.2598 12.0527 14.3536 12.1464C14.4473 12.2402 14.5 12.3674 14.5 12.5V19.5Z" fill="black"/>
</svg>
